<svg width="707" height="605" viewBox="0 0 707 605" fill="none" xmlns="http://www.w3.org/2000/svg">
<rect width="707" height="605" rx="52" fill="white" fill-opacity="0.05"/>
<rect x="261.684" y="215" width="183" height="46" rx="23" fill="white" fill-opacity="0.08"/>
<path d="M293.3 235H291.539C291.434 234.493 291.252 234.048 290.992 233.665C290.736 233.281 290.423 232.959 290.054 232.699C289.69 232.434 289.285 232.235 288.84 232.102C288.395 231.97 287.931 231.903 287.448 231.903C286.567 231.903 285.769 232.126 285.054 232.571C284.344 233.016 283.778 233.672 283.357 234.538C282.94 235.405 282.732 236.468 282.732 237.727C282.732 238.987 282.94 240.05 283.357 240.916C283.778 241.783 284.344 242.438 285.054 242.884C285.769 243.329 286.567 243.551 287.448 243.551C287.931 243.551 288.395 243.485 288.84 243.352C289.285 243.22 289.69 243.023 290.054 242.763C290.423 242.498 290.736 242.173 290.992 241.79C291.252 241.402 291.434 240.956 291.539 240.455H293.3C293.167 241.198 292.926 241.863 292.575 242.45C292.225 243.037 291.789 243.537 291.269 243.949C290.748 244.356 290.163 244.666 289.514 244.879C288.87 245.092 288.182 245.199 287.448 245.199C286.207 245.199 285.104 244.896 284.138 244.29C283.172 243.684 282.412 242.822 281.858 241.705C281.304 240.587 281.027 239.261 281.027 237.727C281.027 236.193 281.304 234.867 281.858 233.75C282.412 232.633 283.172 231.771 284.138 231.165C285.104 230.559 286.207 230.256 287.448 230.256C288.182 230.256 288.87 230.362 289.514 230.575C290.163 230.788 290.748 231.101 291.269 231.513C291.789 231.92 292.225 232.417 292.575 233.004C292.926 233.587 293.167 234.252 293.3 235ZM308.419 237.727C308.419 239.261 308.142 240.587 307.588 241.705C307.034 242.822 306.274 243.684 305.308 244.29C304.342 244.896 303.239 245.199 301.998 245.199C300.758 245.199 299.655 244.896 298.689 244.29C297.723 243.684 296.963 242.822 296.409 241.705C295.855 240.587 295.578 239.261 295.578 237.727C295.578 236.193 295.855 234.867 296.409 233.75C296.963 232.633 297.723 231.771 298.689 231.165C299.655 230.559 300.758 230.256 301.998 230.256C303.239 230.256 304.342 230.559 305.308 231.165C306.274 231.771 307.034 232.633 307.588 233.75C308.142 234.867 308.419 236.193 308.419 237.727ZM306.714 237.727C306.714 236.468 306.504 235.405 306.082 234.538C305.666 233.672 305.1 233.016 304.385 232.571C303.675 232.126 302.879 231.903 301.998 231.903C301.118 231.903 300.32 232.126 299.605 232.571C298.895 233.016 298.329 233.672 297.907 234.538C297.491 235.405 297.282 236.468 297.282 237.727C297.282 238.987 297.491 240.05 297.907 240.916C298.329 241.783 298.895 242.438 299.605 242.884C300.32 243.329 301.118 243.551 301.998 243.551C302.879 243.551 303.675 243.329 304.385 242.884C305.1 242.438 305.666 241.783 306.082 240.916C306.504 240.05 306.714 238.987 306.714 237.727ZM311.381 230.455H313.483L318.426 242.528H318.596L323.54 230.455H325.642V245H323.994V233.949H323.852L319.307 245H317.716L313.17 233.949H313.028V245H311.381V230.455ZM330.935 230.455V245H329.173V230.455H330.935ZM346.001 230.455V245H344.296L336.37 233.58H336.228V245H334.466V230.455H336.171L344.126 241.903H344.268V230.455H346.001ZM359.468 235C359.312 234.522 359.106 234.093 358.85 233.714C358.599 233.331 358.299 233.004 357.948 232.734C357.603 232.464 357.21 232.259 356.769 232.116C356.329 231.974 355.846 231.903 355.32 231.903C354.459 231.903 353.675 232.126 352.97 232.571C352.264 233.016 351.703 233.672 351.286 234.538C350.87 235.405 350.661 236.468 350.661 237.727C350.661 238.987 350.872 240.05 351.294 240.916C351.715 241.783 352.285 242.438 353.005 242.884C353.725 243.329 354.535 243.551 355.434 243.551C356.267 243.551 357.001 243.374 357.636 243.018C358.275 242.659 358.772 242.152 359.127 241.499C359.487 240.84 359.667 240.066 359.667 239.176L360.207 239.29H355.832V237.727H361.372V239.29C361.372 240.488 361.116 241.529 360.605 242.415C360.098 243.3 359.397 243.987 358.502 244.474C357.612 244.957 356.589 245.199 355.434 245.199C354.146 245.199 353.015 244.896 352.039 244.29C351.069 243.684 350.311 242.822 349.767 241.705C349.227 240.587 348.957 239.261 348.957 237.727C348.957 236.577 349.111 235.542 349.419 234.624C349.731 233.7 350.171 232.914 350.74 232.266C351.308 231.617 351.98 231.12 352.757 230.774C353.533 230.429 354.388 230.256 355.32 230.256C356.088 230.256 356.802 230.372 357.465 230.604C358.133 230.831 358.727 231.155 359.248 231.577C359.774 231.993 360.212 232.493 360.562 233.075C360.912 233.653 361.154 234.295 361.286 235H359.468ZM377.968 234.091C377.883 233.371 377.537 232.812 376.931 232.415C376.325 232.017 375.581 231.818 374.701 231.818C374.057 231.818 373.493 231.922 373.01 232.131C372.532 232.339 372.158 232.625 371.888 232.99C371.623 233.355 371.491 233.769 371.491 234.233C371.491 234.621 371.583 234.955 371.768 235.234C371.957 235.509 372.198 235.739 372.492 235.923C372.786 236.103 373.093 236.252 373.415 236.371C373.737 236.484 374.033 236.577 374.303 236.648L375.78 237.045C376.159 237.145 376.581 237.282 377.045 237.457C377.513 237.633 377.961 237.872 378.387 238.175C378.818 238.473 379.173 238.857 379.452 239.325C379.732 239.794 379.871 240.369 379.871 241.051C379.871 241.837 379.665 242.547 379.253 243.182C378.846 243.816 378.25 244.321 377.464 244.695C376.682 245.069 375.733 245.256 374.616 245.256C373.574 245.256 372.672 245.088 371.91 244.751C371.152 244.415 370.555 243.946 370.12 243.345C369.689 242.744 369.445 242.045 369.388 241.25H371.206C371.254 241.799 371.439 242.254 371.76 242.614C372.087 242.969 372.499 243.234 372.996 243.409C373.498 243.58 374.038 243.665 374.616 243.665C375.288 243.665 375.892 243.556 376.427 243.338C376.962 243.116 377.385 242.808 377.698 242.415C378.01 242.017 378.167 241.553 378.167 241.023C378.167 240.54 378.032 240.147 377.762 239.844C377.492 239.541 377.137 239.295 376.697 239.105C376.256 238.916 375.78 238.75 375.269 238.608L373.479 238.097C372.343 237.77 371.443 237.304 370.78 236.697C370.117 236.091 369.786 235.298 369.786 234.318C369.786 233.504 370.006 232.794 370.447 232.188C370.892 231.577 371.488 231.103 372.236 230.767C372.989 230.426 373.83 230.256 374.758 230.256C375.695 230.256 376.528 230.424 377.258 230.76C377.987 231.091 378.564 231.546 378.991 232.124C379.421 232.701 379.649 233.357 379.672 234.091H377.968ZM395.04 237.727C395.04 239.261 394.763 240.587 394.209 241.705C393.655 242.822 392.895 243.684 391.929 244.29C390.963 244.896 389.86 245.199 388.619 245.199C387.379 245.199 386.276 244.896 385.31 244.29C384.344 243.684 383.584 242.822 383.03 241.705C382.476 240.587 382.199 239.261 382.199 237.727C382.199 236.193 382.476 234.867 383.03 233.75C383.584 232.633 384.344 231.771 385.31 231.165C386.276 230.559 387.379 230.256 388.619 230.256C389.86 230.256 390.963 230.559 391.929 231.165C392.895 231.771 393.655 232.633 394.209 233.75C394.763 234.867 395.04 236.193 395.04 237.727ZM393.335 237.727C393.335 236.468 393.125 235.405 392.703 234.538C392.287 233.672 391.721 233.016 391.006 232.571C390.296 232.126 389.5 231.903 388.619 231.903C387.739 231.903 386.941 232.126 386.226 232.571C385.516 233.016 384.95 233.672 384.529 234.538C384.112 235.405 383.904 236.468 383.904 237.727C383.904 238.987 384.112 240.05 384.529 240.916C384.95 241.783 385.516 242.438 386.226 242.884C386.941 243.329 387.739 243.551 388.619 243.551C389.5 243.551 390.296 243.329 391.006 242.884C391.721 242.438 392.287 241.783 392.703 240.916C393.125 240.05 393.335 238.987 393.335 237.727ZM410.274 237.727C410.274 239.261 409.997 240.587 409.443 241.705C408.889 242.822 408.129 243.684 407.164 244.29C406.198 244.896 405.094 245.199 403.854 245.199C402.613 245.199 401.51 244.896 400.544 244.29C399.578 243.684 398.818 242.822 398.264 241.705C397.71 240.587 397.433 239.261 397.433 237.727C397.433 236.193 397.71 234.867 398.264 233.75C398.818 232.633 399.578 231.771 400.544 231.165C401.51 230.559 402.613 230.256 403.854 230.256C405.094 230.256 406.198 230.559 407.164 231.165C408.129 231.771 408.889 232.633 409.443 233.75C409.997 234.867 410.274 236.193 410.274 237.727ZM408.57 237.727C408.57 236.468 408.359 235.405 407.938 234.538C407.521 233.672 406.955 233.016 406.24 232.571C405.53 232.126 404.735 231.903 403.854 231.903C402.973 231.903 402.175 232.126 401.46 232.571C400.75 233.016 400.184 233.672 399.763 234.538C399.346 235.405 399.138 236.468 399.138 237.727C399.138 238.987 399.346 240.05 399.763 240.916C400.184 241.783 400.75 242.438 401.46 242.884C402.175 243.329 402.973 243.551 403.854 243.551C404.735 243.551 405.53 243.329 406.24 242.884C406.955 242.438 407.521 241.783 407.938 240.916C408.359 240.05 408.57 238.987 408.57 237.727ZM424.77 230.455V245H423.066L415.139 233.58H414.997V245H413.236V230.455H414.941L422.895 241.903H423.037V230.455H424.77Z" fill="white"/>
<mask id="mask0_129_7589" style="mask-type:luminance" maskUnits="userSpaceOnUse" x="144" y="300" width="68" height="62">
<path d="M197.877 321.422H158.269C156.587 321.422 155.223 322.786 155.223 324.469V354.936C155.223 356.618 156.587 357.983 158.269 357.983H197.877C199.559 357.983 200.923 356.618 200.923 354.936V324.469C200.923 322.786 199.559 321.422 197.877 321.422Z" fill="white" stroke="white" stroke-width="6.09344"/>
<path d="M167.41 336.656C169.093 336.656 170.457 335.292 170.457 333.609C170.457 331.927 169.093 330.562 167.41 330.562C165.727 330.562 164.363 331.927 164.363 333.609C164.363 335.292 165.727 336.656 167.41 336.656Z" fill="black"/>
<path d="M188.734 336.656C190.417 336.656 191.781 335.292 191.781 333.609C191.781 331.927 190.417 330.562 188.734 330.562C187.052 330.562 185.688 331.927 185.688 333.609C185.688 335.292 187.052 336.656 188.734 336.656Z" fill="black"/>
<path d="M171.98 342.75C171.172 342.75 170.397 343.071 169.826 343.642C169.255 344.214 168.934 344.989 168.934 345.797C168.934 346.605 169.255 347.38 169.826 347.951C170.397 348.522 171.172 348.843 171.98 348.843V342.75ZM184.167 348.843C184.975 348.843 185.75 348.522 186.322 347.951C186.893 347.38 187.214 346.605 187.214 345.797C187.214 344.989 186.893 344.214 186.322 343.642C185.75 343.071 184.975 342.75 184.167 342.75V348.843ZM171.98 348.843H184.167V342.75H171.98V348.843Z" fill="black"/>
<path d="M178.073 309.234V321.421M147.605 333.608V345.795M208.54 333.608V345.795" stroke="white" stroke-width="6.09344" stroke-linecap="round" stroke-linejoin="round"/>
<path d="M178.07 309.234C179.753 309.234 181.117 307.87 181.117 306.187C181.117 304.505 179.753 303.141 178.07 303.141C176.388 303.141 175.023 304.505 175.023 306.187C175.023 307.87 176.388 309.234 178.07 309.234Z" stroke="white" stroke-width="6.09344"/>
</mask>
<g mask="url(#mask0_129_7589)">
<path d="M141.512 294H214.633V367.121H141.512V294Z" fill="white"/>
</g>
<mask id="path-11-outside-1_129_7589" maskUnits="userSpaceOnUse" x="237.367" y="302" width="325" height="86" fill="black">
<rect fill="white" x="237.367" y="302" width="325" height="86"/>
<path d="M283.249 302.78V312.691H266.935V364H254.656V312.691H238.343V302.78H283.249ZM310.276 364.789C305.598 364.789 301.388 363.766 297.646 361.72C293.904 359.615 290.951 356.662 288.787 352.861C286.682 349.061 285.63 344.675 285.63 339.705C285.63 334.735 286.712 330.35 288.875 326.549C291.097 322.748 294.108 319.825 297.909 317.778C301.709 315.673 305.949 314.621 310.626 314.621C315.304 314.621 319.543 315.673 323.344 317.778C327.145 319.825 330.127 322.748 332.29 326.549C334.512 330.35 335.623 334.735 335.623 339.705C335.623 344.675 334.483 349.061 332.202 352.861C329.98 356.662 326.94 359.615 323.081 361.72C319.28 363.766 315.012 364.789 310.276 364.789ZM310.276 354.089C312.497 354.089 314.573 353.563 316.503 352.51C318.491 351.399 320.07 349.762 321.239 347.599C322.408 345.435 322.993 342.804 322.993 339.705C322.993 335.086 321.765 331.548 319.309 329.092C316.912 326.578 313.959 325.321 310.451 325.321C306.943 325.321 303.99 326.578 301.593 329.092C299.254 331.548 298.084 335.086 298.084 339.705C298.084 344.324 299.224 347.891 301.505 350.405C303.844 352.861 306.767 354.089 310.276 354.089ZM368.048 314.708C373.837 314.708 378.514 316.55 382.081 320.234C385.648 323.859 387.431 328.946 387.431 335.495V364H375.152V337.162C375.152 333.302 374.187 330.35 372.258 328.303C370.328 326.198 367.697 325.146 364.364 325.146C360.973 325.146 358.283 326.198 356.295 328.303C354.366 330.35 353.401 333.302 353.401 337.162V364H341.122V315.41H353.401V321.462C355.038 319.357 357.114 317.72 359.628 316.55C362.201 315.322 365.007 314.708 368.048 314.708ZM433.138 352.335H408.756L404.721 364H391.828L413.843 302.693H428.139L450.154 364H437.173L433.138 352.335ZM429.806 342.512L420.947 316.901L412.089 342.512H429.806ZM467.153 322.427C468.732 320.205 470.895 318.363 473.643 316.901C476.45 315.381 479.637 314.621 483.204 314.621C487.355 314.621 491.097 315.644 494.43 317.691C497.821 319.737 500.482 322.661 502.411 326.461C504.399 330.203 505.393 334.56 505.393 339.53C505.393 344.5 504.399 348.914 502.411 352.773C500.482 356.574 497.821 359.527 494.43 361.632C491.097 363.737 487.355 364.789 483.204 364.789C479.637 364.789 476.479 364.058 473.731 362.597C471.041 361.135 468.849 359.293 467.153 357.071V387.155H454.874V315.41H467.153V322.427ZM492.851 339.53C492.851 336.606 492.237 334.092 491.009 331.987C489.84 329.823 488.261 328.186 486.273 327.075C484.344 325.964 482.239 325.409 479.958 325.409C477.736 325.409 475.631 325.993 473.643 327.163C471.714 328.274 470.135 329.911 468.907 332.075C467.738 334.238 467.153 336.781 467.153 339.705C467.153 342.629 467.738 345.172 468.907 347.336C470.135 349.499 471.714 351.165 473.643 352.335C475.631 353.446 477.736 354.001 479.958 354.001C482.239 354.001 484.344 353.417 486.273 352.247C488.261 351.078 489.84 349.411 491.009 347.248C492.237 345.084 492.851 342.512 492.851 339.53ZM523.087 322.427C524.666 320.205 526.829 318.363 529.577 316.901C532.384 315.381 535.571 314.621 539.137 314.621C543.289 314.621 547.031 315.644 550.364 317.691C553.755 319.737 556.416 322.661 558.345 326.461C560.333 330.203 561.327 334.56 561.327 339.53C561.327 344.5 560.333 348.914 558.345 352.773C556.416 356.574 553.755 359.527 550.364 361.632C547.031 363.737 543.289 364.789 539.137 364.789C535.571 364.789 532.413 364.058 529.665 362.597C526.975 361.135 524.783 359.293 523.087 357.071V387.155H510.808V315.41H523.087V322.427ZM548.785 339.53C548.785 336.606 548.171 334.092 546.943 331.987C545.774 329.823 544.195 328.186 542.207 327.075C540.278 325.964 538.173 325.409 535.892 325.409C533.67 325.409 531.565 325.993 529.577 327.163C527.648 328.274 526.069 329.911 524.841 332.075C523.672 334.238 523.087 336.781 523.087 339.705C523.087 342.629 523.672 345.172 524.841 347.336C526.069 349.499 527.648 351.165 529.577 352.335C531.565 353.446 533.67 354.001 535.892 354.001C538.173 354.001 540.278 353.417 542.207 352.247C544.195 351.078 545.774 349.411 546.943 347.248C548.171 345.084 548.785 342.512 548.785 339.53Z"/>
</mask>
<path d="M283.249 302.78V312.691H266.935V364H254.656V312.691H238.343V302.78H283.249ZM310.276 364.789C305.598 364.789 301.388 363.766 297.646 361.72C293.904 359.615 290.951 356.662 288.787 352.861C286.682 349.061 285.63 344.675 285.63 339.705C285.63 334.735 286.712 330.35 288.875 326.549C291.097 322.748 294.108 319.825 297.909 317.778C301.709 315.673 305.949 314.621 310.626 314.621C315.304 314.621 319.543 315.673 323.344 317.778C327.145 319.825 330.127 322.748 332.29 326.549C334.512 330.35 335.623 334.735 335.623 339.705C335.623 344.675 334.483 349.061 332.202 352.861C329.98 356.662 326.94 359.615 323.081 361.72C319.28 363.766 315.012 364.789 310.276 364.789ZM310.276 354.089C312.497 354.089 314.573 353.563 316.503 352.51C318.491 351.399 320.07 349.762 321.239 347.599C322.408 345.435 322.993 342.804 322.993 339.705C322.993 335.086 321.765 331.548 319.309 329.092C316.912 326.578 313.959 325.321 310.451 325.321C306.943 325.321 303.99 326.578 301.593 329.092C299.254 331.548 298.084 335.086 298.084 339.705C298.084 344.324 299.224 347.891 301.505 350.405C303.844 352.861 306.767 354.089 310.276 354.089ZM368.048 314.708C373.837 314.708 378.514 316.55 382.081 320.234C385.648 323.859 387.431 328.946 387.431 335.495V364H375.152V337.162C375.152 333.302 374.187 330.35 372.258 328.303C370.328 326.198 367.697 325.146 364.364 325.146C360.973 325.146 358.283 326.198 356.295 328.303C354.366 330.35 353.401 333.302 353.401 337.162V364H341.122V315.41H353.401V321.462C355.038 319.357 357.114 317.72 359.628 316.55C362.201 315.322 365.007 314.708 368.048 314.708ZM433.138 352.335H408.756L404.721 364H391.828L413.843 302.693H428.139L450.154 364H437.173L433.138 352.335ZM429.806 342.512L420.947 316.901L412.089 342.512H429.806ZM467.153 322.427C468.732 320.205 470.895 318.363 473.643 316.901C476.45 315.381 479.637 314.621 483.204 314.621C487.355 314.621 491.097 315.644 494.43 317.691C497.821 319.737 500.482 322.661 502.411 326.461C504.399 330.203 505.393 334.56 505.393 339.53C505.393 344.5 504.399 348.914 502.411 352.773C500.482 356.574 497.821 359.527 494.43 361.632C491.097 363.737 487.355 364.789 483.204 364.789C479.637 364.789 476.479 364.058 473.731 362.597C471.041 361.135 468.849 359.293 467.153 357.071V387.155H454.874V315.41H467.153V322.427ZM492.851 339.53C492.851 336.606 492.237 334.092 491.009 331.987C489.84 329.823 488.261 328.186 486.273 327.075C484.344 325.964 482.239 325.409 479.958 325.409C477.736 325.409 475.631 325.993 473.643 327.163C471.714 328.274 470.135 329.911 468.907 332.075C467.738 334.238 467.153 336.781 467.153 339.705C467.153 342.629 467.738 345.172 468.907 347.336C470.135 349.499 471.714 351.165 473.643 352.335C475.631 353.446 477.736 354.001 479.958 354.001C482.239 354.001 484.344 353.417 486.273 352.247C488.261 351.078 489.84 349.411 491.009 347.248C492.237 345.084 492.851 342.512 492.851 339.53ZM523.087 322.427C524.666 320.205 526.829 318.363 529.577 316.901C532.384 315.381 535.571 314.621 539.137 314.621C543.289 314.621 547.031 315.644 550.364 317.691C553.755 319.737 556.416 322.661 558.345 326.461C560.333 330.203 561.327 334.56 561.327 339.53C561.327 344.5 560.333 348.914 558.345 352.773C556.416 356.574 553.755 359.527 550.364 361.632C547.031 363.737 543.289 364.789 539.137 364.789C535.571 364.789 532.413 364.058 529.665 362.597C526.975 361.135 524.783 359.293 523.087 357.071V387.155H510.808V315.41H523.087V322.427ZM548.785 339.53C548.785 336.606 548.171 334.092 546.943 331.987C545.774 329.823 544.195 328.186 542.207 327.075C540.278 325.964 538.173 325.409 535.892 325.409C533.67 325.409 531.565 325.993 529.577 327.163C527.648 328.274 526.069 329.911 524.841 332.075C523.672 334.238 523.087 336.781 523.087 339.705C523.087 342.629 523.672 345.172 524.841 347.336C526.069 349.499 527.648 351.165 529.577 352.335C531.565 353.446 533.67 354.001 535.892 354.001C538.173 354.001 540.278 353.417 542.207 352.247C544.195 351.078 545.774 349.411 546.943 347.248C548.171 345.084 548.785 342.512 548.785 339.53Z" fill="white"/>
<path d="M283.249 302.78H283.57V302.459H283.249V302.78ZM283.249 312.691V313.013H283.57V312.691H283.249ZM266.935 312.691V312.37H266.614V312.691H266.935ZM266.935 364V364.321H267.256V364H266.935ZM254.656 364H254.335V364.321H254.656V364ZM254.656 312.691H254.977V312.37H254.656V312.691ZM238.343 312.691H238.021V313.013H238.343V312.691ZM238.343 302.78V302.459H238.021V302.78H238.343ZM282.927 302.78V312.691H283.57V302.78H282.927ZM283.249 312.37H266.935V313.013H283.249V312.37ZM266.614 312.691V364H267.256V312.691H266.614ZM266.935 363.679H254.656V364.321H266.935V363.679ZM254.977 364V312.691H254.335V364H254.977ZM254.656 312.37H238.343V313.013H254.656V312.37ZM238.664 312.691V302.78H238.021V312.691H238.664ZM238.343 303.102H283.249V302.459H238.343V303.102ZM297.646 361.72L297.488 362L297.492 362.002L297.646 361.72ZM288.787 352.861L288.506 353.017L288.508 353.02L288.787 352.861ZM288.875 326.549L288.598 326.387L288.596 326.39L288.875 326.549ZM297.909 317.778L298.061 318.061L298.064 318.059L297.909 317.778ZM323.344 317.778L323.188 318.059L323.192 318.061L323.344 317.778ZM332.29 326.549L332.011 326.708L332.013 326.711L332.29 326.549ZM332.202 352.861L331.927 352.696L331.925 352.699L332.202 352.861ZM323.081 361.72L323.233 362.003L323.235 362.002L323.081 361.72ZM316.503 352.51L316.657 352.792L316.66 352.791L316.503 352.51ZM321.239 347.599L321.522 347.752H321.522L321.239 347.599ZM319.309 329.092L319.077 329.314L319.082 329.32L319.309 329.092ZM301.593 329.092L301.36 328.871L301.36 328.871L301.593 329.092ZM301.505 350.405L301.267 350.621L301.272 350.627L301.505 350.405ZM310.276 364.468C305.646 364.468 301.49 363.456 297.8 361.438L297.492 362.002C301.285 364.076 305.549 365.111 310.276 365.111V364.468ZM297.803 361.44C294.113 359.364 291.202 356.453 289.067 352.702L288.508 353.02C290.7 356.87 293.694 359.866 297.488 362L297.803 361.44ZM289.068 352.705C286.993 348.959 285.951 344.629 285.951 339.705H285.308C285.308 344.722 286.371 349.162 288.506 353.017L289.068 352.705ZM285.951 339.705C285.951 334.783 287.022 330.454 289.154 326.708L288.596 326.39C286.401 330.245 285.308 334.687 285.308 339.705H285.951ZM289.152 326.711C291.345 322.96 294.314 320.079 298.061 318.061L297.756 317.495C293.903 319.57 290.849 322.536 288.598 326.387L289.152 326.711ZM298.064 318.059C301.814 315.983 305.999 314.942 310.626 314.942V314.299C305.898 314.299 301.605 315.364 297.753 317.497L298.064 318.059ZM310.626 314.942C315.254 314.942 319.439 315.983 323.188 318.059L323.5 317.497C319.648 315.364 315.354 314.299 310.626 314.299V314.942ZM323.192 318.061C326.938 320.079 329.877 322.959 332.011 326.708L332.569 326.39C330.376 322.538 327.351 319.571 323.496 317.495L323.192 318.061ZM332.013 326.711C334.202 330.457 335.302 334.784 335.302 339.705H335.944C335.944 334.685 334.822 330.243 332.567 326.387L332.013 326.711ZM335.302 339.705C335.302 344.624 334.174 348.951 331.927 352.696L332.478 353.026C334.792 349.17 335.944 344.726 335.944 339.705H335.302ZM331.925 352.699C329.732 356.449 326.735 359.361 322.927 361.438L323.235 362.002C327.145 359.869 330.228 356.874 332.48 353.023L331.925 352.699ZM322.928 361.437C319.179 363.456 314.964 364.468 310.276 364.468V365.111C315.06 365.111 319.381 364.077 323.233 362.003L322.928 361.437ZM310.276 354.41C312.551 354.41 314.679 353.871 316.657 352.792L316.349 352.228C314.467 353.255 312.444 353.768 310.276 353.768V354.41ZM316.66 352.791C318.705 351.648 320.326 349.964 321.522 347.752L320.956 347.446C319.813 349.56 318.277 351.151 316.346 352.23L316.66 352.791ZM321.522 347.752C322.722 345.53 323.314 342.844 323.314 339.705H322.672C322.672 342.764 322.095 345.34 320.956 347.446L321.522 347.752ZM323.314 339.705C323.314 335.03 322.071 331.399 319.537 328.865L319.082 329.32C321.46 331.697 322.672 335.142 322.672 339.705H323.314ZM319.542 328.871C317.083 326.292 314.046 325 310.451 325V325.642C313.872 325.642 316.741 326.864 319.077 329.314L319.542 328.871ZM310.451 325C306.856 325 303.819 326.292 301.36 328.871L301.825 329.314C304.161 326.864 307.03 325.642 310.451 325.642V325ZM301.36 328.871C298.946 331.405 297.763 335.034 297.763 339.705H298.406C298.406 335.138 299.561 331.691 301.825 329.314L301.36 328.871ZM297.763 339.705C297.763 344.375 298.916 348.029 301.267 350.621L301.743 350.189C299.533 347.753 298.406 344.274 298.406 339.705H297.763ZM301.272 350.627C303.674 353.149 306.683 354.41 310.276 354.41V353.768C306.852 353.768 304.013 352.573 301.738 350.184L301.272 350.627ZM382.081 320.234L381.85 320.458L381.852 320.459L382.081 320.234ZM387.431 364V364.321H387.753V364H387.431ZM375.152 364H374.831V364.321H375.152V364ZM372.258 328.303L372.021 328.52L372.024 328.524L372.258 328.303ZM356.295 328.303L356.062 328.082L356.061 328.083L356.295 328.303ZM353.401 364V364.321H353.722V364H353.401ZM341.122 364H340.8V364.321H341.122V364ZM341.122 315.41V315.089H340.8V315.41H341.122ZM353.401 315.41H353.722V315.089H353.401V315.41ZM353.401 321.462H353.079V322.399L353.654 321.659L353.401 321.462ZM359.628 316.55L359.764 316.842L359.766 316.84L359.628 316.55ZM368.048 315.03C373.762 315.03 378.352 316.845 381.85 320.458L382.312 320.011C378.677 316.256 373.911 314.387 368.048 314.387V315.03ZM381.852 320.459C385.344 324.009 387.11 329.005 387.11 335.495H387.753C387.753 328.887 385.952 323.71 382.31 320.009L381.852 320.459ZM387.11 335.495V364H387.753V335.495H387.11ZM387.431 363.679H375.152V364.321H387.431V363.679ZM375.474 364V337.162H374.831V364H375.474ZM375.474 337.162C375.474 333.251 374.496 330.208 372.492 328.083L372.024 328.524C373.879 330.491 374.831 333.353 374.831 337.162H375.474ZM372.495 328.086C370.494 325.903 367.771 324.824 364.364 324.824V325.467C367.624 325.467 370.163 326.493 372.021 328.52L372.495 328.086ZM364.364 324.824C360.901 324.824 358.121 325.902 356.062 328.082L356.529 328.524C358.446 326.494 361.045 325.467 364.364 325.467V324.824ZM356.061 328.083C354.057 330.208 353.079 333.251 353.079 337.162H353.722C353.722 333.353 354.674 330.491 356.529 328.524L356.061 328.083ZM353.079 337.162V364H353.722V337.162H353.079ZM353.401 363.679H341.122V364.321H353.401V363.679ZM341.443 364V315.41H340.8V364H341.443ZM341.122 315.731H353.401V315.089H341.122V315.731ZM353.079 315.41V321.462H353.722V315.41H353.079ZM353.654 321.659C355.259 319.596 357.294 317.99 359.764 316.842L359.493 316.259C356.934 317.449 354.817 319.118 353.147 321.265L353.654 321.659ZM359.766 316.84C362.293 315.634 365.052 315.03 368.048 315.03V314.387C364.963 314.387 362.108 315.01 359.49 316.26L359.766 316.84ZM433.138 352.335L433.442 352.23L433.367 352.014H433.138V352.335ZM408.756 352.335V352.014H408.527L408.452 352.23L408.756 352.335ZM404.721 364V364.321H404.95L405.025 364.105L404.721 364ZM391.828 364L391.526 363.891L391.371 364.321H391.828V364ZM413.843 302.693V302.371H413.617L413.54 302.584L413.843 302.693ZM428.139 302.693L428.442 302.584L428.365 302.371H428.139V302.693ZM450.154 364V364.321H450.61L450.456 363.891L450.154 364ZM437.173 364L436.869 364.105L436.944 364.321H437.173V364ZM429.806 342.512V342.833H430.257L430.109 342.407L429.806 342.512ZM420.947 316.901L421.251 316.796L420.947 315.918L420.643 316.796L420.947 316.901ZM412.089 342.512L411.785 342.407L411.637 342.833H412.089V342.512ZM433.138 352.014H408.756V352.656H433.138V352.014ZM408.452 352.23L404.418 363.895L405.025 364.105L409.059 352.44L408.452 352.23ZM404.721 363.679H391.828V364.321H404.721V363.679ZM392.131 364.109L414.145 302.801L413.54 302.584L391.526 363.891L392.131 364.109ZM413.843 303.014H428.139V302.371H413.843V303.014ZM427.837 302.801L449.851 364.109L450.456 363.891L428.442 302.584L427.837 302.801ZM450.154 363.679H437.173V364.321H450.154V363.679ZM437.477 363.895L433.442 352.23L432.835 352.44L436.869 364.105L437.477 363.895ZM430.109 342.407L421.251 316.796L420.643 317.006L429.502 342.617L430.109 342.407ZM420.643 316.796L411.785 342.407L412.392 342.617L421.251 317.006L420.643 316.796ZM412.089 342.833H429.806V342.19H412.089V342.833ZM467.153 322.427H466.832V323.434L467.415 322.613L467.153 322.427ZM473.643 316.901L473.794 317.185L473.796 317.184L473.643 316.901ZM494.43 317.691L494.262 317.964L494.264 317.966L494.43 317.691ZM502.411 326.461L502.125 326.607L502.128 326.612L502.411 326.461ZM502.411 352.773L502.126 352.626L502.125 352.628L502.411 352.773ZM494.43 361.632L494.261 361.359L494.258 361.36L494.43 361.632ZM473.731 362.597L473.578 362.879L473.58 362.88L473.731 362.597ZM467.153 357.071L467.409 356.876L466.832 356.12V357.071H467.153ZM467.153 387.155V387.476H467.474V387.155H467.153ZM454.874 387.155H454.553V387.476H454.874V387.155ZM454.874 315.41V315.089H454.553V315.41H454.874ZM467.153 315.41H467.474V315.089H467.153V315.41ZM491.009 331.987L490.727 332.14L490.732 332.149L491.009 331.987ZM486.273 327.075L486.113 327.354L486.117 327.356L486.273 327.075ZM473.643 327.163L473.804 327.441L473.806 327.44L473.643 327.163ZM468.907 332.075L468.628 331.916L468.625 331.922L468.907 332.075ZM468.907 347.336L468.624 347.488L468.628 347.494L468.907 347.336ZM473.643 352.335L473.477 352.61L473.487 352.615L473.643 352.335ZM486.273 352.247L486.11 351.97L486.107 351.972L486.273 352.247ZM491.009 347.248L490.73 347.089L490.727 347.095L491.009 347.248ZM467.415 322.613C468.961 320.437 471.084 318.627 473.794 317.185L473.493 316.617C470.707 318.099 468.503 319.973 466.891 322.241L467.415 322.613ZM473.796 317.184C476.551 315.692 479.684 314.942 483.204 314.942V314.299C479.59 314.299 476.349 315.07 473.49 316.619L473.796 317.184ZM483.204 314.942C487.299 314.942 490.983 315.951 494.262 317.964L494.598 317.417C491.212 315.337 487.411 314.299 483.204 314.299V314.942ZM494.264 317.966C497.6 319.979 500.22 322.855 502.125 326.607L502.698 326.316C500.743 322.466 498.043 319.495 494.596 317.415L494.264 317.966ZM502.128 326.612C504.087 330.3 505.072 334.603 505.072 339.53H505.715C505.715 334.516 504.712 330.107 502.695 326.311L502.128 326.612ZM505.072 339.53C505.072 344.456 504.087 348.819 502.126 352.626L502.697 352.921C504.712 349.01 505.715 344.543 505.715 339.53H505.072ZM502.125 352.628C500.22 356.38 497.599 359.287 494.261 361.359L494.6 361.905C498.044 359.767 500.744 356.768 502.698 352.919L502.125 352.628ZM494.258 361.36C490.98 363.431 487.298 364.468 483.204 364.468V365.111C487.412 365.111 491.215 364.043 494.602 361.904L494.258 361.36ZM483.204 364.468C479.682 364.468 476.577 363.747 473.882 362.313L473.58 362.88C476.381 364.37 479.592 365.111 483.204 365.111V364.468ZM473.885 362.314C471.231 360.872 469.074 359.059 467.409 356.876L466.898 357.266C468.623 359.527 470.852 361.398 473.578 362.879L473.885 362.314ZM466.832 357.071V387.155H467.474V357.071H466.832ZM467.153 386.833H454.874V387.476H467.153V386.833ZM455.195 387.155V315.41H454.553V387.155H455.195ZM454.874 315.731H467.153V315.089H454.874V315.731ZM466.832 315.41V322.427H467.474V315.41H466.832ZM493.173 339.53C493.173 336.561 492.549 333.988 491.287 331.825L490.732 332.149C491.926 334.196 492.53 336.652 492.53 339.53H493.173ZM491.292 331.834C490.096 329.621 488.476 327.938 486.43 326.795L486.117 327.356C488.047 328.435 489.584 330.025 490.727 332.14L491.292 331.834ZM486.434 326.797C484.454 325.657 482.294 325.087 479.958 325.087V325.73C482.184 325.73 484.233 326.272 486.113 327.354L486.434 326.797ZM479.958 325.087C477.677 325.087 475.516 325.689 473.481 326.886L473.806 327.44C475.747 326.298 477.796 325.73 479.958 325.73V325.087ZM473.483 326.884C471.498 328.027 469.881 329.709 468.628 331.916L469.187 332.233C470.39 330.114 471.93 328.521 473.804 327.441L473.483 326.884ZM468.625 331.922C467.425 334.14 466.832 336.738 466.832 339.705H467.474C467.474 336.825 468.05 334.336 469.19 332.227L468.625 331.922ZM466.832 339.705C466.832 342.672 467.425 345.27 468.625 347.488L469.19 347.183C468.05 345.074 467.474 342.585 467.474 339.705H466.832ZM468.628 347.494C469.88 349.7 471.496 351.409 473.477 352.61L473.81 352.06C471.932 350.922 470.39 349.298 469.187 347.177L468.628 347.494ZM473.487 352.615C475.521 353.752 477.68 354.323 479.958 354.323V353.68C477.793 353.68 475.742 353.139 473.8 352.054L473.487 352.615ZM479.958 354.323C482.297 354.323 484.459 353.722 486.44 352.522L486.107 351.972C484.228 353.111 482.181 353.68 479.958 353.68V354.323ZM486.436 352.524C488.478 351.323 490.097 349.612 491.292 347.401L490.727 347.095C489.583 349.211 488.045 350.832 486.11 351.97L486.436 352.524ZM491.289 347.407C492.549 345.186 493.173 342.556 493.173 339.53H492.53C492.53 342.467 491.926 344.983 490.73 347.089L491.289 347.407ZM523.087 322.427H522.766V323.434L523.349 322.613L523.087 322.427ZM529.577 316.901L529.728 317.185L529.73 317.184L529.577 316.901ZM550.364 317.691L550.196 317.964L550.198 317.966L550.364 317.691ZM558.345 326.461L558.059 326.607L558.062 326.612L558.345 326.461ZM558.345 352.773L558.06 352.626L558.059 352.628L558.345 352.773ZM550.364 361.632L550.195 361.359L550.192 361.36L550.364 361.632ZM529.665 362.597L529.512 362.879L529.514 362.88L529.665 362.597ZM523.087 357.071L523.342 356.876L522.766 356.12V357.071H523.087ZM523.087 387.155V387.476H523.408V387.155H523.087ZM510.808 387.155H510.487V387.476H510.808V387.155ZM510.808 315.41V315.089H510.487V315.41H510.808ZM523.087 315.41H523.408V315.089H523.087V315.41ZM546.943 331.987L546.661 332.14L546.666 332.149L546.943 331.987ZM542.207 327.075L542.047 327.354L542.051 327.356L542.207 327.075ZM529.577 327.163L529.738 327.441L529.74 327.44L529.577 327.163ZM524.841 332.075L524.562 331.916L524.559 331.922L524.841 332.075ZM524.841 347.336L524.558 347.488L524.562 347.494L524.841 347.336ZM529.577 352.335L529.411 352.61L529.421 352.615L529.577 352.335ZM542.207 352.247L542.044 351.97L542.041 351.972L542.207 352.247ZM546.943 347.248L546.664 347.089L546.661 347.095L546.943 347.248ZM523.349 322.613C524.895 320.437 527.018 318.627 529.728 317.185L529.426 316.617C526.641 318.099 524.437 319.973 522.825 322.241L523.349 322.613ZM529.73 317.184C532.485 315.692 535.618 314.942 539.137 314.942V314.299C535.524 314.299 532.283 315.07 529.424 316.619L529.73 317.184ZM539.137 314.942C543.233 314.942 546.917 315.951 550.196 317.964L550.532 317.417C547.146 315.337 543.345 314.299 539.137 314.299V314.942ZM550.198 317.966C553.534 319.979 556.154 322.855 558.059 326.607L558.632 326.316C556.677 322.466 553.977 319.495 550.53 317.415L550.198 317.966ZM558.062 326.612C560.021 330.3 561.006 334.603 561.006 339.53H561.649C561.649 334.516 560.646 330.107 558.629 326.311L558.062 326.612ZM561.006 339.53C561.006 344.456 560.021 348.819 558.06 352.626L558.631 352.921C560.646 349.01 561.649 344.543 561.649 339.53H561.006ZM558.059 352.628C556.154 356.38 553.533 359.287 550.195 361.359L550.534 361.905C553.978 359.767 556.678 356.768 558.632 352.919L558.059 352.628ZM550.192 361.36C546.914 363.431 543.232 364.468 539.137 364.468V365.111C543.346 365.111 547.149 364.043 550.536 361.904L550.192 361.36ZM539.137 364.468C535.616 364.468 532.511 363.747 529.816 362.313L529.514 362.88C532.315 364.37 535.526 365.111 539.137 365.111V364.468ZM529.819 362.314C527.165 360.872 525.008 359.059 523.342 356.876L522.832 357.266C524.557 359.527 526.786 361.398 529.512 362.879L529.819 362.314ZM522.766 357.071V387.155H523.408V357.071H522.766ZM523.087 386.833H510.808V387.476H523.087V386.833ZM511.129 387.155V315.41H510.487V387.155H511.129ZM510.808 315.731H523.087V315.089H510.808V315.731ZM522.766 315.41V322.427H523.408V315.41H522.766ZM549.107 339.53C549.107 336.561 548.483 333.988 547.221 331.825L546.666 332.149C547.86 334.196 548.464 336.652 548.464 339.53H549.107ZM547.226 331.834C546.03 329.621 544.41 327.938 542.364 326.795L542.051 327.356C543.981 328.435 545.518 330.025 546.661 332.14L547.226 331.834ZM542.368 326.797C540.388 325.657 538.228 325.087 535.892 325.087V325.73C538.118 325.73 540.167 326.272 542.047 327.354L542.368 326.797ZM535.892 325.087C533.611 325.087 531.45 325.689 529.414 326.886L529.74 327.44C531.681 326.298 533.73 325.73 535.892 325.73V325.087ZM529.417 326.884C527.432 328.027 525.815 329.709 524.562 331.916L525.121 332.233C526.324 330.114 527.864 328.521 529.738 327.441L529.417 326.884ZM524.559 331.922C523.359 334.14 522.766 336.738 522.766 339.705H523.408C523.408 336.825 523.984 334.336 525.124 332.227L524.559 331.922ZM522.766 339.705C522.766 342.672 523.359 345.27 524.559 347.488L525.124 347.183C523.984 345.074 523.408 342.585 523.408 339.705H522.766ZM524.562 347.494C525.814 349.7 527.43 351.409 529.411 352.61L529.744 352.06C527.866 350.922 526.324 349.298 525.121 347.177L524.562 347.494ZM529.421 352.615C531.455 353.752 533.614 354.323 535.892 354.323V353.68C533.727 353.68 531.676 353.139 529.734 352.054L529.421 352.615ZM535.892 354.323C538.231 354.323 540.393 353.722 542.374 352.522L542.041 351.972C540.162 353.111 538.115 353.68 535.892 353.68V354.323ZM542.37 352.524C544.412 351.323 546.031 349.612 547.226 347.401L546.661 347.095C545.517 349.211 543.978 350.832 542.044 351.97L542.37 352.524ZM547.223 347.407C548.483 345.186 549.107 342.556 549.107 339.53H548.464C548.464 342.467 547.859 344.983 546.664 347.089L547.223 347.407Z" fill="url(#paint0_linear_129_7589)" fill-opacity="0.8" mask="url(#path-11-outside-1_129_7589)"/>
<defs>
<linearGradient id="paint0_linear_129_7589" x1="399.867" y1="275" x2="399.867" y2="391" gradientUnits="userSpaceOnUse">
<stop stop-color="white"/>
<stop offset="0.358832" stop-color="white"/>
<stop offset="0.542685" stop-color="#E4E4E4" stop-opacity="0.35"/>
<stop offset="1" stop-color="#989898"/>
</linearGradient>
</defs>
</svg>
