<svg width="133" height="40" viewBox="0 0 133 40" fill="none" xmlns="http://www.w3.org/2000/svg">
<g clip-path="url(#clip0_263_3726)">
<mask id="mask0_263_3726" style="mask-type:luminance" maskUnits="userSpaceOnUse" x="0" y="8" width="24" height="22">
<path d="M19.156 16.0308H5.57769C5.00083 16.0308 4.5332 16.4984 4.5332 17.0752V27.5201C4.5332 28.0969 5.00083 28.5646 5.57769 28.5646H19.156C19.7328 28.5646 20.2005 28.0969 20.2005 27.5201V17.0752C20.2005 16.4984 19.7328 16.0308 19.156 16.0308Z" fill="white" stroke="white" stroke-width="2.08897"/>
<path d="M8.7105 21.253C9.28735 21.253 9.75498 20.7854 9.75498 20.2085C9.75498 19.6317 9.28735 19.1641 8.7105 19.1641C8.13365 19.1641 7.66602 19.6317 7.66602 20.2085C7.66602 20.7854 8.13365 21.253 8.7105 21.253Z" fill="black"/>
<path d="M16.022 21.253C16.5989 21.253 17.0665 20.7854 17.0665 20.2085C17.0665 19.6317 16.5989 19.1641 16.022 19.1641C15.4452 19.1641 14.9775 19.6317 14.9775 20.2085C14.9775 20.7854 15.4452 21.253 16.022 21.253Z" fill="black"/>
<path d="M10.2779 23.342C10.0009 23.342 9.7352 23.4521 9.53932 23.648C9.34344 23.8438 9.2334 24.1095 9.2334 24.3865C9.2334 24.6635 9.34344 24.9292 9.53932 25.1251C9.7352 25.321 10.0009 25.431 10.2779 25.431V23.342ZM14.4558 25.431C14.7328 25.431 14.9985 25.321 15.1944 25.1251C15.3903 24.9292 15.5003 24.6635 15.5003 24.3865C15.5003 24.1095 15.3903 23.8438 15.1944 23.648C14.9985 23.4521 14.7328 23.342 14.4558 23.342V25.431ZM10.2779 25.431H14.4558V23.342H10.2779V25.431Z" fill="black"/>
<path d="M12.3667 11.8528V16.0307M1.92188 20.2087V24.3866M22.8115 20.2087V24.3866" stroke="white" stroke-width="2.08897" stroke-linecap="round" stroke-linejoin="round"/>
<path d="M12.3667 11.8526C12.9436 11.8526 13.4112 11.385 13.4112 10.8082C13.4112 10.2313 12.9436 9.76367 12.3667 9.76367C11.7899 9.76367 11.3223 10.2313 11.3223 10.8082C11.3223 11.385 11.7899 11.8526 12.3667 11.8526Z" stroke="white" stroke-width="2.08897"/>
</mask>
<g mask="url(#mask0_263_3726)">
<path d="M-0.166992 6.63013H24.9006V31.6977H-0.166992V6.63013Z" fill="white"/>
</g>
</g>
<mask id="path-8-outside-1_263_3726" maskUnits="userSpaceOnUse" x="33.0078" y="8" width="99" height="23" fill="black">
<rect fill="white" x="33.0078" y="8" width="99" height="23"/>
<path d="M48.5919 9.01252V12.4102H42.9993V30H38.7897V12.4102H33.1971V9.01252H48.5919ZM57.8573 30.2706C56.2537 30.2706 54.8104 29.9198 53.5275 29.2182C52.2446 28.4966 51.2323 27.4843 50.4907 26.1814C49.769 24.8784 49.4082 23.375 49.4082 21.6712C49.4082 19.9673 49.7791 18.4639 50.5207 17.161C51.2825 15.858 52.3148 14.8557 53.6177 14.1542C54.9207 13.4325 56.374 13.0717 57.9776 13.0717C59.5812 13.0717 61.0345 13.4325 62.3375 14.1542C63.6404 14.8557 64.6627 15.858 65.4044 17.161C66.1661 18.4639 66.547 19.9673 66.547 21.6712C66.547 23.375 66.1561 24.8784 65.3743 26.1814C64.6126 27.4843 63.5702 28.4966 62.2473 29.2182C60.9443 29.9198 59.481 30.2706 57.8573 30.2706ZM57.8573 26.6023C58.619 26.6023 59.3307 26.4219 59.9922 26.0611C60.6737 25.6802 61.2149 25.119 61.6158 24.3773C62.0167 23.6356 62.2172 22.7336 62.2172 21.6712C62.2172 20.0876 61.7962 18.8748 60.9543 18.0329C60.1325 17.171 59.1202 16.74 57.9175 16.74C56.7147 16.74 55.7025 17.171 54.8806 18.0329C54.0788 18.8748 53.6779 20.0876 53.6779 21.6712C53.6779 23.2547 54.0688 24.4775 54.8505 25.3395C55.6523 26.1814 56.6546 26.6023 57.8573 26.6023ZM77.663 13.1018C79.6475 13.1018 81.2511 13.7332 82.4739 14.9961C83.6966 16.2389 84.308 17.9828 84.308 20.2279V30H80.0985V20.7992C80.0985 19.4762 79.7677 18.4639 79.1062 17.7623C78.4448 17.0407 77.5427 16.6799 76.4001 16.6799C75.2375 16.6799 74.3154 17.0407 73.6339 17.7623C72.9724 18.4639 72.6416 19.4762 72.6416 20.7992V30H68.4321V13.3423H72.6416V15.417C73.2029 14.6954 73.9145 14.1341 74.7765 13.7332C75.6585 13.3123 76.6206 13.1018 77.663 13.1018ZM99.0153 19.2356C100.198 19.4561 101.17 20.0475 101.932 21.0097C102.694 21.9718 103.074 23.0743 103.074 24.3171C103.074 25.4397 102.794 26.4319 102.233 27.2939C101.691 28.1358 100.9 28.7973 99.8572 29.2784C98.8148 29.7595 97.582 30 96.1588 30H87.1083V9.01252H95.7679C97.1911 9.01252 98.4139 9.24305 99.4362 9.70409C100.479 10.1651 101.26 10.8066 101.782 11.6284C102.323 12.4503 102.593 13.3824 102.593 14.4248C102.593 15.6475 102.263 16.6698 101.601 17.4917C100.96 18.3136 100.098 18.8949 99.0153 19.2356ZM91.3179 17.6721H95.1666C96.1688 17.6721 96.9406 17.4516 97.4818 17.0106C98.023 16.5496 98.2936 15.8981 98.2936 15.0562C98.2936 14.2143 98.023 13.5628 97.4818 13.1018C96.9406 12.6407 96.1688 12.4102 95.1666 12.4102H91.3179V17.6721ZM95.5574 26.5722C96.5798 26.5722 97.3716 26.3317 97.9328 25.8506C98.5141 25.3695 98.8048 24.688 98.8048 23.806C98.8048 22.9039 98.5041 22.2024 97.9028 21.7012C97.3014 21.18 96.4896 20.9195 95.4672 20.9195H91.3179V26.5722H95.5574ZM112.623 30.2706C111.02 30.2706 109.577 29.9198 108.294 29.2182C107.011 28.4966 105.998 27.4843 105.257 26.1814C104.535 24.8784 104.174 23.375 104.174 21.6712C104.174 19.9673 104.545 18.4639 105.287 17.161C106.049 15.858 107.081 14.8557 108.384 14.1542C109.687 13.4325 111.14 13.0717 112.744 13.0717C114.347 13.0717 115.801 13.4325 117.104 14.1542C118.406 14.8557 119.429 15.858 120.17 17.161C120.932 18.4639 121.313 19.9673 121.313 21.6712C121.313 23.375 120.922 24.8784 120.14 26.1814C119.379 27.4843 118.336 28.4966 117.013 29.2182C115.71 29.9198 114.247 30.2706 112.623 30.2706ZM112.623 26.6023C113.385 26.6023 114.097 26.4219 114.758 26.0611C115.44 25.6802 115.981 25.119 116.382 24.3773C116.783 23.6356 116.983 22.7336 116.983 21.6712C116.983 20.0876 116.562 18.8748 115.72 18.0329C114.899 17.171 113.886 16.74 112.684 16.74C111.481 16.74 110.469 17.171 109.647 18.0329C108.845 18.8748 108.444 20.0876 108.444 21.6712C108.444 23.2547 108.835 24.4775 109.617 25.3395C110.418 26.1814 111.421 26.6023 112.623 26.6023ZM128.099 16.8001V24.8584C128.099 25.4196 128.23 25.8306 128.49 26.0912C128.771 26.3317 129.232 26.452 129.873 26.452H131.828V30H129.182C125.634 30 123.86 28.2761 123.86 24.8283V16.8001H121.875V13.3423H123.86V9.223H128.099V13.3423H131.828V16.8001H128.099Z"/>
</mask>
<path d="M48.5919 9.01252V12.4102H42.9993V30H38.7897V12.4102H33.1971V9.01252H48.5919ZM57.8573 30.2706C56.2537 30.2706 54.8104 29.9198 53.5275 29.2182C52.2446 28.4966 51.2323 27.4843 50.4907 26.1814C49.769 24.8784 49.4082 23.375 49.4082 21.6712C49.4082 19.9673 49.7791 18.4639 50.5207 17.161C51.2825 15.858 52.3148 14.8557 53.6177 14.1542C54.9207 13.4325 56.374 13.0717 57.9776 13.0717C59.5812 13.0717 61.0345 13.4325 62.3375 14.1542C63.6404 14.8557 64.6627 15.858 65.4044 17.161C66.1661 18.4639 66.547 19.9673 66.547 21.6712C66.547 23.375 66.1561 24.8784 65.3743 26.1814C64.6126 27.4843 63.5702 28.4966 62.2473 29.2182C60.9443 29.9198 59.481 30.2706 57.8573 30.2706ZM57.8573 26.6023C58.619 26.6023 59.3307 26.4219 59.9922 26.0611C60.6737 25.6802 61.2149 25.119 61.6158 24.3773C62.0167 23.6356 62.2172 22.7336 62.2172 21.6712C62.2172 20.0876 61.7962 18.8748 60.9543 18.0329C60.1325 17.171 59.1202 16.74 57.9175 16.74C56.7147 16.74 55.7025 17.171 54.8806 18.0329C54.0788 18.8748 53.6779 20.0876 53.6779 21.6712C53.6779 23.2547 54.0688 24.4775 54.8505 25.3395C55.6523 26.1814 56.6546 26.6023 57.8573 26.6023ZM77.663 13.1018C79.6475 13.1018 81.2511 13.7332 82.4739 14.9961C83.6966 16.2389 84.308 17.9828 84.308 20.2279V30H80.0985V20.7992C80.0985 19.4762 79.7677 18.4639 79.1062 17.7623C78.4448 17.0407 77.5427 16.6799 76.4001 16.6799C75.2375 16.6799 74.3154 17.0407 73.6339 17.7623C72.9724 18.4639 72.6416 19.4762 72.6416 20.7992V30H68.4321V13.3423H72.6416V15.417C73.2029 14.6954 73.9145 14.1341 74.7765 13.7332C75.6585 13.3123 76.6206 13.1018 77.663 13.1018ZM99.0153 19.2356C100.198 19.4561 101.17 20.0475 101.932 21.0097C102.694 21.9718 103.074 23.0743 103.074 24.3171C103.074 25.4397 102.794 26.4319 102.233 27.2939C101.691 28.1358 100.9 28.7973 99.8572 29.2784C98.8148 29.7595 97.582 30 96.1588 30H87.1083V9.01252H95.7679C97.1911 9.01252 98.4139 9.24305 99.4362 9.70409C100.479 10.1651 101.26 10.8066 101.782 11.6284C102.323 12.4503 102.593 13.3824 102.593 14.4248C102.593 15.6475 102.263 16.6698 101.601 17.4917C100.96 18.3136 100.098 18.8949 99.0153 19.2356ZM91.3179 17.6721H95.1666C96.1688 17.6721 96.9406 17.4516 97.4818 17.0106C98.023 16.5496 98.2936 15.8981 98.2936 15.0562C98.2936 14.2143 98.023 13.5628 97.4818 13.1018C96.9406 12.6407 96.1688 12.4102 95.1666 12.4102H91.3179V17.6721ZM95.5574 26.5722C96.5798 26.5722 97.3716 26.3317 97.9328 25.8506C98.5141 25.3695 98.8048 24.688 98.8048 23.806C98.8048 22.9039 98.5041 22.2024 97.9028 21.7012C97.3014 21.18 96.4896 20.9195 95.4672 20.9195H91.3179V26.5722H95.5574ZM112.623 30.2706C111.02 30.2706 109.577 29.9198 108.294 29.2182C107.011 28.4966 105.998 27.4843 105.257 26.1814C104.535 24.8784 104.174 23.375 104.174 21.6712C104.174 19.9673 104.545 18.4639 105.287 17.161C106.049 15.858 107.081 14.8557 108.384 14.1542C109.687 13.4325 111.14 13.0717 112.744 13.0717C114.347 13.0717 115.801 13.4325 117.104 14.1542C118.406 14.8557 119.429 15.858 120.17 17.161C120.932 18.4639 121.313 19.9673 121.313 21.6712C121.313 23.375 120.922 24.8784 120.14 26.1814C119.379 27.4843 118.336 28.4966 117.013 29.2182C115.71 29.9198 114.247 30.2706 112.623 30.2706ZM112.623 26.6023C113.385 26.6023 114.097 26.4219 114.758 26.0611C115.44 25.6802 115.981 25.119 116.382 24.3773C116.783 23.6356 116.983 22.7336 116.983 21.6712C116.983 20.0876 116.562 18.8748 115.72 18.0329C114.899 17.171 113.886 16.74 112.684 16.74C111.481 16.74 110.469 17.171 109.647 18.0329C108.845 18.8748 108.444 20.0876 108.444 21.6712C108.444 23.2547 108.835 24.4775 109.617 25.3395C110.418 26.1814 111.421 26.6023 112.623 26.6023ZM128.099 16.8001V24.8584C128.099 25.4196 128.23 25.8306 128.49 26.0912C128.771 26.3317 129.232 26.452 129.873 26.452H131.828V30H129.182C125.634 30 123.86 28.2761 123.86 24.8283V16.8001H121.875V13.3423H123.86V9.223H128.099V13.3423H131.828V16.8001H128.099Z" fill="white"/>
<path d="M48.5919 9.01252H48.7021V8.90236H48.5919V9.01252ZM48.5919 12.4102V12.5204H48.7021V12.4102H48.5919ZM42.9993 12.4102V12.3H42.8891V12.4102H42.9993ZM42.9993 30V30.1102H43.1094V30H42.9993ZM38.7897 30H38.6796V30.1102H38.7897V30ZM38.7897 12.4102H38.8999V12.3H38.7897V12.4102ZM33.1971 12.4102H33.0869V12.5204H33.1971V12.4102ZM33.1971 9.01252V8.90236H33.0869V9.01252H33.1971ZM48.4818 9.01252V12.4102H48.7021V9.01252H48.4818ZM48.5919 12.3H42.9993V12.5204H48.5919V12.3ZM42.8891 12.4102V30H43.1094V12.4102H42.8891ZM42.9993 29.8898H38.7897V30.1102H42.9993V29.8898ZM38.8999 30V12.4102H38.6796V30H38.8999ZM38.7897 12.3H33.1971V12.5204H38.7897V12.3ZM33.3073 12.4102V9.01252H33.0869V12.4102H33.3073ZM33.1971 9.12269H48.5919V8.90236H33.1971V9.12269ZM53.5275 29.2182L53.4735 29.3143L53.4747 29.3149L53.5275 29.2182ZM50.4907 26.1814L50.3943 26.2347L50.3949 26.2359L50.4907 26.1814ZM50.5207 17.161L50.4256 17.1054L50.425 17.1065L50.5207 17.161ZM53.6177 14.1542L53.67 14.2512L53.6711 14.2505L53.6177 14.1542ZM62.3375 14.1542L62.2841 14.2505L62.2852 14.2512L62.3375 14.1542ZM65.4044 17.161L65.3087 17.2155L65.3093 17.2166L65.4044 17.161ZM65.3743 26.1814L65.2799 26.1247L65.2792 26.1258L65.3743 26.1814ZM62.2473 29.2182L62.2995 29.3152L62.3 29.3149L62.2473 29.2182ZM59.9922 26.0611L60.0449 26.1578L60.0459 26.1573L59.9922 26.0611ZM61.6158 24.3773L61.7127 24.4297L61.6158 24.3773ZM60.9543 18.0329L60.8746 18.109L60.8764 18.1108L60.9543 18.0329ZM54.8806 18.0329L54.8009 17.9569L54.8008 17.957L54.8806 18.0329ZM54.8505 25.3395L54.7689 25.4135L54.7708 25.4154L54.8505 25.3395ZM57.8573 30.1604C56.2703 30.1604 54.8456 29.8135 53.5804 29.1216L53.4747 29.3149C54.7753 30.0262 56.2371 30.3808 57.8573 30.3808V30.1604ZM53.5815 29.1222C52.3164 28.4106 51.3184 27.4128 50.5864 26.1269L50.3949 26.2359C51.1463 27.5558 52.1729 28.5826 53.4735 29.3142L53.5815 29.1222ZM50.587 26.128C49.8757 24.8436 49.5184 23.3591 49.5184 21.6712H49.298C49.298 23.391 49.6624 24.9132 50.3943 26.2347L50.587 26.128ZM49.5184 21.6712C49.5184 19.9838 49.8855 18.4996 50.6165 17.2155L50.425 17.1065C49.6726 18.4282 49.298 19.9508 49.298 21.6712H49.5184ZM50.6158 17.2166C51.3676 15.9307 52.3852 14.9429 53.67 14.2512L53.5655 14.0572C52.2444 14.7685 51.1974 15.7853 50.4256 17.1054L50.6158 17.2166ZM53.6711 14.2505C54.9565 13.5386 56.3912 13.1819 57.9776 13.1819V12.9615C56.3568 12.9615 54.8849 13.3264 53.5644 14.0578L53.6711 14.2505ZM57.9776 13.1819C59.564 13.1819 60.9987 13.5386 62.2841 14.2505L62.3908 14.0578C61.0703 13.3264 59.5984 12.9615 57.9776 12.9615V13.1819ZM62.2852 14.2512C63.5697 14.9428 64.5771 15.9302 65.3087 17.2155L65.5001 17.1065C64.7484 15.7858 63.7111 14.7687 62.3897 14.0572L62.2852 14.2512ZM65.3093 17.2166C66.0599 18.5005 66.4368 19.9843 66.4368 21.6712H66.6571C66.6571 19.9503 66.2723 18.4273 65.4995 17.1054L65.3093 17.2166ZM66.4368 21.6712C66.4368 23.3575 66.0502 24.8409 65.2799 26.1247L65.4688 26.238C66.262 24.916 66.6571 23.3925 66.6571 21.6712H66.4368ZM65.2792 26.1258C64.5276 27.4114 63.4999 28.4095 62.1945 29.1215L62.3 29.3149C63.6406 28.5837 64.6976 27.5572 65.4694 26.237L65.2792 26.1258ZM62.195 29.1212C60.9097 29.8134 59.4646 30.1604 57.8573 30.1604V30.3808C59.4974 30.3808 60.979 30.0263 62.2995 29.3152L62.195 29.1212ZM57.8573 26.7125C58.6373 26.7125 59.367 26.5275 60.0449 26.1578L59.9394 25.9644C59.2943 26.3163 58.6008 26.4922 57.8573 26.4922V26.7125ZM60.0459 26.1573C60.7472 25.7654 61.3027 25.1882 61.7127 24.4297L61.5189 24.3249C61.1271 25.0497 60.6002 25.5951 59.9384 25.9649L60.0459 26.1573ZM61.7127 24.4297C62.1243 23.6682 62.3274 22.7472 62.3274 21.6712H62.107C62.107 22.7199 61.9092 23.603 61.5189 24.3249L61.7127 24.4297ZM62.3274 21.6712C62.3274 20.0683 61.9009 18.8237 61.0322 17.955L60.8764 18.1108C61.6916 18.926 62.107 20.1068 62.107 21.6712H62.3274ZM61.0341 17.9569C60.1912 17.0729 59.15 16.6298 57.9175 16.6298V16.8502C59.0904 16.8502 60.0738 17.269 60.8746 18.1089L61.0341 17.9569ZM57.9175 16.6298C56.685 16.6298 55.6437 17.0729 54.8009 17.9569L54.9603 18.1089C55.7612 17.269 56.7445 16.8502 57.9175 16.8502V16.6298ZM54.8008 17.957C53.9733 18.8258 53.5677 20.0697 53.5677 21.6712H53.788C53.788 20.1054 54.1842 18.9238 54.9604 18.1089L54.8008 17.957ZM53.5677 21.6712C53.5677 23.2721 53.963 24.5249 54.7689 25.4135L54.9321 25.2654C54.1745 24.4301 53.788 23.2374 53.788 21.6712H53.5677ZM54.7708 25.4154C55.5942 26.28 56.6256 26.7125 57.8573 26.7125V26.4922C56.6836 26.4922 55.7105 26.0827 54.9303 25.2635L54.7708 25.4154ZM82.4739 14.9961L82.3947 15.0727L82.3953 15.0733L82.4739 14.9961ZM84.308 30V30.1102H84.4182V30H84.308ZM80.0985 30H79.9883V30.1102H80.0985V30ZM79.1063 17.7623L79.025 17.8368L79.0261 17.8379L79.1063 17.7623ZM73.6339 17.7623L73.5538 17.6867L73.5537 17.6867L73.6339 17.7623ZM72.6416 30V30.1102H72.7518V30H72.6416ZM68.4321 30H68.3219V30.1102H68.4321V30ZM68.4321 13.3423V13.2322H68.3219V13.3423H68.4321ZM72.6416 13.3423H72.7518V13.2322H72.6416V13.3423ZM72.6416 15.417H72.5315V15.7381L72.7286 15.4846L72.6416 15.417ZM74.7765 13.7332L74.8229 13.8331L74.8239 13.8326L74.7765 13.7332ZM77.663 13.2119C79.6219 13.2119 81.1955 13.8341 82.3947 15.0727L82.553 14.9194C81.3067 13.6323 79.6731 12.9916 77.663 12.9916V13.2119ZM82.3953 15.0733C83.5925 16.2901 84.1979 18.003 84.1979 20.2279H84.4182C84.4182 17.9626 83.8008 16.1877 82.5524 14.9188L82.3953 15.0733ZM84.1979 20.2279V30H84.4182V20.2279H84.1979ZM84.308 29.8898H80.0985V30.1102H84.308V29.8898ZM80.2087 30V20.7992H79.9883V30H80.2087ZM80.2087 20.7992C80.2087 19.4587 79.8734 18.4154 79.1864 17.6867L79.0261 17.8379C79.6621 18.5124 79.9883 19.4937 79.9883 20.7992H80.2087ZM79.1875 17.6879C78.5016 16.9396 77.5679 16.5697 76.4001 16.5697V16.79C77.5175 16.79 78.3879 17.1417 79.025 17.8368L79.1875 17.6879ZM76.4001 16.5697C75.2128 16.5697 74.2597 16.9392 73.5538 17.6867L73.714 17.838C74.3711 17.1422 75.2622 16.79 76.4001 16.79V16.5697ZM73.5537 17.6867C72.8667 18.4154 72.5315 19.4587 72.5315 20.7992H72.7518C72.7518 19.4937 73.078 18.5124 73.714 17.8379L73.5537 17.6867ZM72.5315 20.7992V30H72.7518V20.7992H72.5315ZM72.6416 29.8898H68.4321V30.1102H72.6416V29.8898ZM68.5423 30V13.3423H68.3219V30H68.5423ZM68.4321 13.4525H72.6416V13.2322H68.4321V13.4525ZM72.5315 13.3423V15.417H72.7518V13.3423H72.5315ZM72.7286 15.4846C73.2787 14.7774 73.9762 14.2269 74.8229 13.8331L74.73 13.6333C73.8528 14.0413 73.1271 14.6134 72.5547 15.3494L72.7286 15.4846ZM74.8239 13.8326C75.6901 13.4192 76.6359 13.2119 77.663 13.2119V12.9916C76.6053 12.9916 75.6268 13.2053 74.729 13.6338L74.8239 13.8326ZM99.0153 19.2356L98.9822 19.1306L98.9951 19.3439L99.0153 19.2356ZM101.932 21.0097L102.018 20.9413L101.932 21.0097ZM102.233 27.2939L102.14 27.2338L102.14 27.2343L102.233 27.2939ZM99.8572 29.2784L99.9033 29.3784L99.8572 29.2784ZM87.1083 30H86.9982V30.1102H87.1083V30ZM87.1083 9.01252V8.90236H86.9982V9.01252H87.1083ZM99.4362 9.70409L99.3909 9.80451L99.3917 9.80484L99.4362 9.70409ZM101.782 11.6284L101.688 11.6874L101.69 11.689L101.782 11.6284ZM101.601 17.4917L101.515 17.4226L101.514 17.4239L101.601 17.4917ZM91.3179 17.6721H91.2077V17.7823H91.3179V17.6721ZM97.4818 17.0106L97.5514 17.096L97.5532 17.0945L97.4818 17.0106ZM97.4818 13.1018L97.5532 13.0179L97.4818 13.1018ZM91.3179 12.4102V12.3H91.2077V12.4102H91.3179ZM97.9328 25.8506L97.8626 25.7657L97.8611 25.767L97.9328 25.8506ZM97.9028 21.7012L97.8306 21.7845L97.8322 21.7859L97.9028 21.7012ZM91.3179 20.9195V20.8093H91.2077V20.9195H91.3179ZM91.3179 26.5722H91.2077V26.6824H91.3179V26.5722ZM98.9951 19.3439C100.151 19.5595 101.1 20.1363 101.845 21.078L102.018 20.9413C101.24 19.9587 100.245 19.3528 99.0355 19.1274L98.9951 19.3439ZM101.845 21.078C102.592 22.0205 102.964 23.0988 102.964 24.3171H103.185C103.185 23.0499 102.796 21.9232 102.018 20.9413L101.845 21.078ZM102.964 24.3171C102.964 25.4204 102.689 26.3913 102.14 27.2338L102.325 27.354C102.899 26.4725 103.185 25.459 103.185 24.3171H102.964ZM102.14 27.2343C101.612 28.0561 100.837 28.7047 99.811 29.1783L99.9033 29.3784C100.962 28.8898 101.771 28.2155 102.325 27.3534L102.14 27.2343ZM99.811 29.1783C98.7862 29.6514 97.5698 29.8898 96.1588 29.8898V30.1102C97.5942 30.1102 98.8435 29.8676 99.9033 29.3784L99.811 29.1783ZM96.1588 29.8898H87.1083V30.1102H96.1588V29.8898ZM87.2185 30V9.01252H86.9982V30H87.2185ZM87.1083 9.12269H95.7679V8.90236H87.1083V9.12269ZM95.7679 9.12269C97.1796 9.12269 98.3861 9.35137 99.3909 9.80451L99.4815 9.60367C98.4417 9.13472 97.2027 8.90236 95.7679 8.90236V9.12269ZM99.3917 9.80484C100.418 10.2586 101.181 10.887 101.688 11.6874L101.875 11.5694C101.34 10.7262 100.54 10.0717 99.4808 9.60334L99.3917 9.80484ZM101.69 11.689C102.218 12.4918 102.483 13.4026 102.483 14.4248H102.704C102.704 13.3622 102.427 12.4088 101.874 11.5679L101.69 11.689ZM102.483 14.4248C102.483 15.6266 102.159 16.6234 101.515 17.4226L101.687 17.5608C102.367 16.7163 102.704 15.6685 102.704 14.4248H102.483ZM101.514 17.4239C100.888 18.2266 100.045 18.7959 98.9822 19.1306L99.0483 19.3407C100.15 18.9939 101.032 18.4005 101.688 17.5595L101.514 17.4239ZM91.3179 17.7823H95.1666V17.562H91.3179V17.7823ZM95.1666 17.7823C96.1834 17.7823 96.9835 17.5587 97.5514 17.096L97.4122 16.9252C96.8976 17.3445 96.1543 17.562 95.1666 17.562V17.7823ZM97.5532 17.0945C98.1236 16.6086 98.4038 15.9238 98.4038 15.0562H98.1835C98.1835 15.8724 97.9224 16.4906 97.4104 16.9268L97.5532 17.0945ZM98.4038 15.0562C98.4038 14.1886 98.1236 13.5038 97.5532 13.0179L97.4104 13.1856C97.9224 13.6218 98.1835 14.24 98.1835 15.0562H98.4038ZM97.5532 13.0179C96.9853 12.5341 96.1844 12.3 95.1666 12.3V12.5204C96.1533 12.5204 96.8959 12.7474 97.4104 13.1856L97.5532 13.0179ZM95.1666 12.3H91.3179V12.5204H95.1666V12.3ZM91.2077 12.4102V17.6721H91.428V12.4102H91.2077ZM95.5574 26.6824C96.596 26.6824 97.4168 26.438 98.0045 25.9343L97.8611 25.767C97.3263 26.2254 96.5635 26.4621 95.5574 26.4621V26.6824ZM98.0031 25.9355C98.6141 25.4298 98.915 24.7146 98.915 23.806H98.6946C98.6946 24.6613 98.4142 25.3092 97.8626 25.7657L98.0031 25.9355ZM98.915 23.806C98.915 22.8768 98.6037 22.142 97.9733 21.6166L97.8322 21.7859C98.4045 22.2627 98.6946 22.9311 98.6946 23.806H98.915ZM97.9749 21.618C97.3484 21.075 96.5083 20.8093 95.4672 20.8093V21.0296C96.4708 21.0296 97.2544 21.2851 97.8306 21.7845L97.9749 21.618ZM95.4672 20.8093H91.3179V21.0296H95.4672V20.8093ZM91.2077 20.9195V26.5722H91.428V20.9195H91.2077ZM91.3179 26.6824H95.5574V26.4621H91.3179V26.6824ZM108.294 29.2182L108.24 29.3143L108.241 29.3149L108.294 29.2182ZM105.257 26.1814L105.16 26.2347L105.161 26.2359L105.257 26.1814ZM105.287 17.161L105.192 17.1054L105.191 17.1065L105.287 17.161ZM108.384 14.1542L108.436 14.2512L108.437 14.2505L108.384 14.1542ZM117.104 14.1542L117.05 14.2505L117.051 14.2512L117.104 14.1542ZM120.17 17.161L120.075 17.2155L120.075 17.2166L120.17 17.161ZM120.14 26.1814L120.046 26.1247L120.045 26.1258L120.14 26.1814ZM117.013 29.2182L117.066 29.3152L117.066 29.3149L117.013 29.2182ZM114.758 26.0611L114.811 26.1578L114.812 26.1573L114.758 26.0611ZM116.382 24.3773L116.479 24.4297L116.382 24.3773ZM115.72 18.0329L115.641 18.109L115.643 18.1108L115.72 18.0329ZM109.647 18.0329L109.567 17.9569L109.567 17.957L109.647 18.0329ZM109.617 25.3395L109.535 25.4135L109.537 25.4154L109.617 25.3395ZM112.623 30.1604C111.036 30.1604 109.612 29.8135 108.346 29.1216L108.241 29.3149C109.541 30.0262 111.003 30.3808 112.623 30.3808V30.1604ZM108.348 29.1222C107.082 28.4106 106.084 27.4128 105.352 26.1269L105.161 26.2359C105.912 27.5558 106.939 28.5826 108.24 29.3142L108.348 29.1222ZM105.353 26.128C104.642 24.8436 104.284 23.3591 104.284 21.6712H104.064C104.064 23.391 104.428 24.9132 105.16 26.2347L105.353 26.128ZM104.284 21.6712C104.284 19.9838 104.652 18.4996 105.383 17.2155L105.191 17.1065C104.439 18.4282 104.064 19.9508 104.064 21.6712H104.284ZM105.382 17.2166C106.134 15.9307 107.151 14.9429 108.436 14.2512L108.332 14.0572C107.01 14.7685 105.963 15.7853 105.192 17.1054L105.382 17.2166ZM108.437 14.2505C109.723 13.5386 111.157 13.1819 112.744 13.1819V12.9615C111.123 12.9615 109.651 13.3264 108.33 14.0578L108.437 14.2505ZM112.744 13.1819C114.33 13.1819 115.765 13.5386 117.05 14.2505L117.157 14.0578C115.836 13.3264 114.365 12.9615 112.744 12.9615V13.1819ZM117.051 14.2512C118.336 14.9428 119.343 15.9302 120.075 17.2155L120.266 17.1065C119.514 15.7858 118.477 14.7687 117.156 14.0572L117.051 14.2512ZM120.075 17.2166C120.826 18.5005 121.203 19.9843 121.203 21.6712H121.423C121.423 19.9503 121.038 18.4273 120.266 17.1054L120.075 17.2166ZM121.203 21.6712C121.203 23.3575 120.816 24.8409 120.046 26.1247L120.235 26.238C121.028 24.916 121.423 23.3925 121.423 21.6712H121.203ZM120.045 26.1258C119.294 27.4114 118.266 28.4095 116.961 29.1215L117.066 29.3149C118.407 28.5837 119.464 27.5572 120.236 26.237L120.045 26.1258ZM116.961 29.1212C115.676 29.8134 114.231 30.1604 112.623 30.1604V30.3808C114.263 30.3808 115.745 30.0263 117.066 29.3152L116.961 29.1212ZM112.623 26.7125C113.403 26.7125 114.133 26.5275 114.811 26.1578L114.705 25.9644C114.06 26.3163 113.367 26.4922 112.623 26.4922V26.7125ZM114.812 26.1573C115.513 25.7654 116.069 25.1882 116.479 24.4297L116.285 24.3249C115.893 25.0497 115.366 25.5951 114.704 25.9649L114.812 26.1573ZM116.479 24.4297C116.89 23.6682 117.093 22.7472 117.093 21.6712H116.873C116.873 22.7199 116.675 23.603 116.285 24.3249L116.479 24.4297ZM117.093 21.6712C117.093 20.0683 116.667 18.8237 115.798 17.955L115.643 18.1108C116.458 18.926 116.873 20.1068 116.873 21.6712H117.093ZM115.8 17.9569C114.957 17.0729 113.916 16.6298 112.684 16.6298V16.8502C113.856 16.8502 114.84 17.269 115.641 18.1089L115.8 17.9569ZM112.684 16.6298C111.451 16.6298 110.41 17.0729 109.567 17.9569L109.726 18.1089C110.527 17.269 111.511 16.8502 112.684 16.8502V16.6298ZM109.567 17.957C108.739 18.8258 108.334 20.0697 108.334 21.6712H108.554C108.554 20.1054 108.95 18.9238 109.726 18.1089L109.567 17.957ZM108.334 21.6712C108.334 23.2721 108.729 24.5249 109.535 25.4135L109.698 25.2654C108.941 24.4301 108.554 23.2374 108.554 21.6712H108.334ZM109.537 25.4154C110.36 26.28 111.392 26.7125 112.623 26.7125V26.4922C111.45 26.4922 110.477 26.0827 109.696 25.2635L109.537 25.4154ZM128.099 16.8001V16.69H127.989V16.8001H128.099ZM128.49 26.0912L128.412 26.1693L128.418 26.1748L128.49 26.0912ZM131.828 26.452H131.938V26.3418H131.828V26.452ZM131.828 30V30.1102H131.938V30H131.828ZM123.86 16.8001H123.97V16.69H123.86V16.8001ZM121.875 16.8001H121.765V16.9103H121.875V16.8001ZM121.875 13.3423V13.2322H121.765V13.3423H121.875ZM123.86 13.3423V13.4525H123.97V13.3423H123.86ZM123.86 9.223V9.11284H123.75V9.223H123.86ZM128.099 9.223H128.209V9.11284H128.099V9.223ZM128.099 13.3423H127.989V13.4525H128.099V13.3423ZM131.828 13.3423H131.938V13.2322H131.828V13.3423ZM131.828 16.8001V16.9103H131.938V16.8001H131.828ZM127.989 16.8001V24.8584H128.209V16.8001H127.989ZM127.989 24.8584C127.989 25.4338 128.122 25.8792 128.412 26.1691L128.568 26.0133C128.337 25.782 128.209 25.4054 128.209 24.8584H127.989ZM128.418 26.1748C128.729 26.4412 129.223 26.5621 129.873 26.5621V26.3418C129.241 26.3418 128.812 26.2222 128.562 26.0075L128.418 26.1748ZM129.873 26.5621H131.828V26.3418H129.873V26.5621ZM131.718 26.452V30H131.938V26.452H131.718ZM131.828 29.8898H129.182V30.1102H131.828V29.8898ZM129.182 29.8898C127.424 29.8898 126.126 29.4628 125.267 28.6281C124.409 27.7939 123.97 26.5344 123.97 24.8283H123.75C123.75 26.57 124.198 27.8963 125.113 28.7861C126.028 29.6753 127.392 30.1102 129.182 30.1102V29.8898ZM123.97 24.8283V16.8001H123.75V24.8283H123.97ZM123.86 16.69H121.875V16.9103H123.86V16.69ZM121.985 16.8001V13.3423H121.765V16.8001H121.985ZM121.875 13.4525H123.86V13.2322H121.875V13.4525ZM123.97 13.3423V9.223H123.75V13.3423H123.97ZM123.86 9.33316H128.099V9.11284H123.86V9.33316ZM127.989 9.223V13.3423H128.209V9.223H127.989ZM128.099 13.4525H131.828V13.2322H128.099V13.4525ZM131.718 13.3423V16.8001H131.938V13.3423H131.718ZM131.828 16.69H128.099V16.9103H131.828V16.69Z" fill="url(#paint0_linear_263_3726)" fill-opacity="0.8" mask="url(#path-8-outside-1_263_3726)"/>
<defs>
<linearGradient id="paint0_linear_263_3726" x1="82.5078" y1="0" x2="82.5078" y2="40" gradientUnits="userSpaceOnUse">
<stop stop-color="white"/>
<stop offset="0.358832" stop-color="white"/>
<stop offset="0.542685" stop-color="#E4E4E4" stop-opacity="0.35"/>
<stop offset="1" stop-color="#989898"/>
</linearGradient>
<clipPath id="clip0_263_3726">
<rect width="24.7334" height="22.728" fill="white" transform="translate(0 8.63599)"/>
</clipPath>
</defs>
</svg>
