<svg width="124" height="110" viewBox="0 0 124 110" fill="none" xmlns="http://www.w3.org/2000/svg">
<g opacity="0.2">
<circle cx="7" cy="7" r="7" fill="white"/>
<circle cx="29" cy="7" r="7" fill="white"/>
<circle cx="51" cy="7" r="7" fill="white"/>
<circle cx="73" cy="7" r="7" fill="white"/>
<circle cx="95" cy="7" r="7" fill="white"/>
<circle cx="117" cy="7" r="7" fill="white"/>
<circle cx="7" cy="31" r="7" fill="white"/>
<circle cx="7" cy="55" r="7" fill="white"/>
<circle cx="7" cy="79" r="7" fill="white"/>
<circle cx="7" cy="103" r="7" fill="white"/>
<circle cx="29" cy="31" r="7" fill="white"/>
<circle cx="29" cy="55" r="7" fill="white"/>
<circle cx="29" cy="79" r="7" fill="white"/>
<circle cx="29" cy="103" r="7" fill="white"/>
<circle cx="51" cy="31" r="7" fill="white"/>
<circle cx="51" cy="55" r="7" fill="white"/>
<circle cx="51" cy="79" r="7" fill="white"/>
<circle cx="51" cy="103" r="7" fill="white"/>
<circle cx="73" cy="31" r="7" fill="white"/>
<circle cx="73" cy="55" r="7" fill="white"/>
<circle cx="73" cy="79" r="7" fill="white"/>
<circle cx="73" cy="103" r="7" fill="white"/>
<circle cx="95" cy="31" r="7" fill="white"/>
<circle cx="95" cy="55" r="7" fill="white"/>
<circle cx="95" cy="79" r="7" fill="white"/>
<circle cx="95" cy="103" r="7" fill="white"/>
<circle cx="117" cy="31" r="7" fill="white"/>
<circle cx="117" cy="55" r="7" fill="white"/>
<circle cx="117" cy="79" r="7" fill="white"/>
<circle cx="117" cy="103" r="7" fill="white"/>
</g>
</svg>
