<svg xmlns="http://www.w3.org/2000/svg" width="79" height="72" viewBox="0 0 79 72" fill="none">
  <mask id="mask0_151_8570" style="mask-type:luminance" maskUnits="userSpaceOnUse" x="3" y="0" width="73" height="67">
    <path d="M60.9874 23.4219H17.9656C16.1379 23.4219 14.6562 24.9035 14.6562 26.7312V59.8249C14.6562 61.6526 16.1379 63.1343 17.9656 63.1343H60.9874C62.8151 63.1343 64.2968 61.6526 64.2968 59.8249V26.7312C64.2968 24.9035 62.8151 23.4219 60.9874 23.4219Z" fill="white" stroke="white" stroke-width="6.61874"/>
    <path d="M27.8914 39.9625C29.7191 39.9625 31.2008 38.4808 31.2008 36.6531C31.2008 34.8254 29.7191 33.3438 27.8914 33.3438C26.0637 33.3438 24.582 34.8254 24.582 36.6531C24.582 38.4808 26.0637 39.9625 27.8914 39.9625Z" fill="black"/>
    <path d="M51.0594 39.9625C52.8871 39.9625 54.3687 38.4808 54.3687 36.6531C54.3687 34.8254 52.8871 33.3438 51.0594 33.3438C49.2317 33.3438 47.75 34.8254 47.75 36.6531C47.75 38.4808 49.2317 39.9625 51.0594 39.9625Z" fill="black"/>
    <path d="M32.8562 46.5859C31.9785 46.5859 31.1368 46.9346 30.5162 47.5552C29.8955 48.1759 29.5469 49.0176 29.5469 49.8953C29.5469 50.773 29.8955 51.6148 30.5162 52.2354C31.1368 52.856 31.9785 53.2047 32.8562 53.2047V46.5859ZM46.0937 53.2047C46.9714 53.2047 47.8132 52.856 48.4338 52.2354C49.0544 51.6148 49.4031 50.773 49.4031 49.8953C49.4031 49.0176 49.0544 48.1759 48.4338 47.5552C47.8132 46.9346 46.9714 46.5859 46.0937 46.5859V53.2047ZM32.8562 53.2047H46.0937V46.5859H32.8562V53.2047Z" fill="black"/>
    <path d="M39.4765 10.1797V23.4172M6.38281 36.6546V49.8921M72.5702 36.6546V49.8921" stroke="white" stroke-width="6.61874" stroke-linecap="round" stroke-linejoin="round"/>
    <path d="M39.4773 10.1812C41.3051 10.1812 42.7867 8.69958 42.7867 6.87187C42.7867 5.04415 41.3051 3.5625 39.4773 3.5625C37.6496 3.5625 36.168 5.04415 36.168 6.87187C36.168 8.69958 37.6496 10.1812 39.4773 10.1812Z" stroke="white" stroke-width="6.61874"/>
  </mask>
  <g mask="url(#mask0_151_8570)">
    <path d="M-0.234375 -6.36719H79.1905V73.0577H-0.234375V-6.36719Z" fill="white"/>
  </g>
</svg>